# xmcd
#
# Track frame offsets: 
#        150
#        14070
#        27505
#        42614
#        63681
#        76967
#        89893
#        102565
#        115619
#        133393
#        152680
#        168908
#
# Disc length: 2505 seconds
#
# Revision: 0
# Processed by: cddbd v1.5PL3 Copyright (c) Steve Scherf et al.
# Submitted via: ExactAudioCopy v0.95a5
#
DISCID=ad09c70c
DTITLE=Various Artist - The Blues
DYEAR=2004
DGENRE=Blues
TTITLE0=I'm A King Bee
TTITLE1=Rock Me Baby
TTITLE2=Going Down
TTITLE3=Back Door Slam
TTITLE4=Dust My Broom
TTITLE5=(I'm your) Hoochie Coochie Man
TTITLE6=Born Under A Bad Sign
TTITLE7=I Ain't Superstitious
TTITLE8=Good Morning Schoolgirl
TTITLE9=Blues Ain't Nothin'
TTITLE10=I Don't Want No Woman
TTITLE11=Ain't That Lovin' You Baby
EXTD=
EXTT0=
EXTT1=
EXTT2=
EXTT3=
EXTT4=
EXTT5=
EXTT6=
EXTT7=
EXTT8=
EXTT9=
EXTT10=
EXTT11=
PLAYORDER=
